HIERARCHY
ROOT Hips
{
  OFFSET 0.849866 78.6569 -0.536788
  CHANNELS 6 Xposition Yposition Zposition Zrotation Xrotation Yrotation
  JOINT Bip01_Pelvis
  {
    OFFSET 0 0 0
    CHANNELS 6 Xposition Yposition Zposition Zrotation Xrotation Yrotation
    JOINT BN_Tail_01
    {
      OFFSET -5.52397 -0.332285 0
      CHANNELS 6 Xposition Yposition Zposition Zrotation Xrotation Yrotation
      JOINT BN_Tail_02
      {
        OFFSET 6.48885 -2.032e-005 0
        CHANNELS 6 Xposition Yposition Zposition Zrotation Xrotation Yrotation
        JOINT BN_Tail_03
        {
          OFFSET 7.08759 1.016e-005 -0.00261112
          CHANNELS 6 Xposition Yposition Zposition Zrotation Xrotation Yrotation
          End Site
          {
            OFFSET 0 0 0
          }
        }
      }
    }
    JOINT Bip01_Spine
    {
      OFFSET 4.02227 0.398968 0
      CHANNELS 6 Xposition Yposition Zposition Zrotation Xrotation Yrotation
      JOINT BN_UpperArm_R_01
      {
        OFFSET 4.84413 -3.22857 -3.65581
        CHANNELS 6 Xposition Yposition Zposition Zrotation Xrotation Yrotation
        JOINT BN_Forearm_R_01
        {
          OFFSET 8.51614 0 0
          CHANNELS 6 Xposition Yposition Zposition Zrotation Xrotation Yrotation
          JOINT BN_hand_R_01
          {
            OFFSET 10.1924 0 0
            CHANNELS 6 Xposition Yposition Zposition Zrotation Xrotation Yrotation
            JOINT BN_Finger_R_02
            {
              OFFSET 14.5949 -1.43855 0.585079
              CHANNELS 6 Xposition Yposition Zposition Zrotation Xrotation Yrotation
              End Site
              {
                OFFSET 0 0 0
              }
            }
            JOINT BN_Finger_R_01
            {
              OFFSET 14.4623 0 0
              CHANNELS 6 Xposition Yposition Zposition Zrotation Xrotation Yrotation
              End Site
              {
                OFFSET 0 0 0
              }
            }
          }
        }
      }
      JOINT BN_UpperArm_L_01
      {
        OFFSET 4.84412 -3.22858 3.65557
        CHANNELS 6 Xposition Yposition Zposition Zrotation Xrotation Yrotation
        JOINT BN_Forearm_L_01
        {
          OFFSET 8.51611 0 0
          CHANNELS 6 Xposition Yposition Zposition Zrotation Xrotation Yrotation
          JOINT BN_hand_L_01
          {
            OFFSET 10.1924 0 0
            CHANNELS 6 Xposition Yposition Zposition Zrotation Xrotation Yrotation
            JOINT BN_Finger_L_01
            {
              OFFSET 14.4623 0 0
              CHANNELS 6 Xposition Yposition Zposition Zrotation Xrotation Yrotation
              End Site
              {
                OFFSET 0 0 0
              }
            }
            JOINT BN_Finger_L_02
            {
              OFFSET 14.5949 1.43855 0.585071
              CHANNELS 6 Xposition Yposition Zposition Zrotation Xrotation Yrotation
              End Site
              {
                OFFSET 0 0 0
              }
            }
          }
        }
      }
      JOINT Bip01_R_Thigh
      {
        OFFSET -4.03411 -0.254132 -3.45377
        CHANNELS 6 Xposition Yposition Zposition Zrotation Xrotation Yrotation
        JOINT Bip01_R_Calf
        {
          OFFSET 3.92618 0 0
          CHANNELS 6 Xposition Yposition Zposition Zrotation Xrotation Yrotation
          JOINT Bip01_R_HorseLink
          {
            OFFSET 6.12319 0 0
            CHANNELS 6 Xposition Yposition Zposition Zrotation Xrotation Yrotation
            JOINT Bip01_R_Foot
            {
              OFFSET 9.94776 0 0
              CHANNELS 6 Xposition Yposition Zposition Zrotation Xrotation Yrotation
              JOINT Bip01_R_Toe3
              {
                OFFSET 0.881252 -0.110953 0.0158496
                CHANNELS 6 Xposition Yposition Zposition Zrotation Xrotation Yrotation
                JOINT Bip01_R_Toe31
                {
                  OFFSET 2.32137 0 0
                  CHANNELS 6 Xposition Yposition Zposition Zrotation Xrotation Yrotation
                  JOINT Bip01_R_Toe32
                  {
                    OFFSET 1.63293 0 0
                    CHANNELS 6 Xposition Yposition Zposition Zrotation Xrotation Yrotation
                    JOINT Bip01_R_Toe3Nub
                    {
                      OFFSET 1.72131 0 0
                      CHANNELS 6 Xposition Yposition Zposition Zrotation Xrotation Yrotation
                      End Site
                      {
                        OFFSET 0 0 0
                      }
                    }
                  }
                }
              }
              JOINT Bip01_R_Toe2
              {
                OFFSET 0.994751 0.967285 -1.09428
                CHANNELS 6 Xposition Yposition Zposition Zrotation Xrotation Yrotation
                JOINT Bip01_R_Toe21
                {
                  OFFSET 2.20201 0 0
                  CHANNELS 6 Xposition Yposition Zposition Zrotation Xrotation Yrotation
                  JOINT Bip01_R_Toe22
                  {
                    OFFSET 1.84925 0 0
                    CHANNELS 6 Xposition Yposition Zposition Zrotation Xrotation Yrotation
                    JOINT Bip01_R_Toe2Nub
                    {
                      OFFSET 1.70976 0 0
                      CHANNELS 6 Xposition Yposition Zposition Zrotation Xrotation Yrotation
                      End Site
                      {
                        OFFSET 0 0 0
                      }
                    }
                  }
                }
              }
              JOINT Bip01_R_Toe1
              {
                OFFSET 1.3748 1.34027 -0.0712419
                CHANNELS 6 Xposition Yposition Zposition Zrotation Xrotation Yrotation
                JOINT Bip01_R_Toe11
                {
                  OFFSET 2.26122 0 0
                  CHANNELS 6 Xposition Yposition Zposition Zrotation Xrotation Yrotation
                  JOINT Bip01_R_Toe12
                  {
                    OFFSET 2.22215 0 0
                    CHANNELS 6 Xposition Yposition Zposition Zrotation Xrotation Yrotation
                    JOINT Bip01_R_Toe1Nub
                    {
                      OFFSET 1.61867 0 0
                      CHANNELS 6 Xposition Yposition Zposition Zrotation Xrotation Yrotation
                      End Site
                      {
                        OFFSET 0 0 0
                      }
                    }
                  }
                }
              }
              JOINT Bip01_R_Toe0
              {
                OFFSET 1.40695 0.687986 0.883783
                CHANNELS 6 Xposition Yposition Zposition Zrotation Xrotation Yrotation
                JOINT Bip01_R_Toe01
                {
                  OFFSET 2.26828 0 0
                  CHANNELS 6 Xposition Yposition Zposition Zrotation Xrotation Yrotation
                  JOINT Bip01_R_Toe02
                  {
                    OFFSET 2.09769 0 0
                    CHANNELS 6 Xposition Yposition Zposition Zrotation Xrotation Yrotation
                    JOINT Bip01_R_Toe0Nub
                    {
                      OFFSET 1.53753 0 0
                      CHANNELS 6 Xposition Yposition Zposition Zrotation Xrotation Yrotation
                      End Site
                      {
                        OFFSET 0 0 0
                      }
                    }
                  }
                }
              }
            }
          }
        }
      }
      JOINT Bip01_L_Thigh
      {
        OFFSET -4.03411 -0.254147 3.45377
        CHANNELS 6 Xposition Yposition Zposition Zrotation Xrotation Yrotation
        JOINT Bip01_L_Calf
        {
          OFFSET 3.92616 0 0
          CHANNELS 6 Xposition Yposition Zposition Zrotation Xrotation Yrotation
          JOINT Bip01_L_HorseLink
          {
            OFFSET 6.1232 0 0
            CHANNELS 6 Xposition Yposition Zposition Zrotation Xrotation Yrotation
            JOINT Bip01_L_Foot
            {
              OFFSET 9.94775 0 0
              CHANNELS 6 Xposition Yposition Zposition Zrotation Xrotation Yrotation
              JOINT Bip01_L_Toe3
              {
                OFFSET 0.881246 -0.110986 -0.0157582
                CHANNELS 6 Xposition Yposition Zposition Zrotation Xrotation Yrotation
                JOINT Bip01_L_Toe31
                {
                  OFFSET 2.32136 0 0
                  CHANNELS 6 Xposition Yposition Zposition Zrotation Xrotation Yrotation
                  JOINT Bip01_L_Toe32
                  {
                    OFFSET 1.63293 0 0
                    CHANNELS 6 Xposition Yposition Zposition Zrotation Xrotation Yrotation
                    JOINT Bip01_L_Toe3Nub
                    {
                      OFFSET 1.7213 0 0
                      CHANNELS 6 Xposition Yposition Zposition Zrotation Xrotation Yrotation
                      End Site
                      {
                        OFFSET 0 0 0
                      }
                    }
                  }
                }
              }
              JOINT Bip01_L_Toe2
              {
                OFFSET 0.994649 0.967162 1.09447
                CHANNELS 6 Xposition Yposition Zposition Zrotation Xrotation Yrotation
                JOINT Bip01_L_Toe21
                {
                  OFFSET 2.202 0 0
                  CHANNELS 6 Xposition Yposition Zposition Zrotation Xrotation Yrotation
                  JOINT Bip01_L_Toe22
                  {
                    OFFSET 1.84926 0 0
                    CHANNELS 6 Xposition Yposition Zposition Zrotation Xrotation Yrotation
                    JOINT Bip01_L_Toe2Nub
                    {
                      OFFSET 1.70976 0 0
                      CHANNELS 6 Xposition Yposition Zposition Zrotation Xrotation Yrotation
                      End Site
                      {
                        OFFSET 0 0 0
                      }
                    }
                  }
                }
              }
              JOINT Bip01_L_Toe1
              {
                OFFSET 1.37483 1.34021 0.0715086
                CHANNELS 6 Xposition Yposition Zposition Zrotation Xrotation Yrotation
                JOINT Bip01_L_Toe11
                {
                  OFFSET 2.26124 0 0
                  CHANNELS 6 Xposition Yposition Zposition Zrotation Xrotation Yrotation
                  JOINT Bip01_L_Toe12
                  {
                    OFFSET 2.22214 0 0
                    CHANNELS 6 Xposition Yposition Zposition Zrotation Xrotation Yrotation
                    JOINT Bip01_L_Toe1Nub
                    {
                      OFFSET 1.61867 0 0
                      CHANNELS 6 Xposition Yposition Zposition Zrotation Xrotation Yrotation
                      End Site
                      {
                        OFFSET 0 0 0
                      }
                    }
                  }
                }
              }
              JOINT Bip01_L_Toe0
              {
                OFFSET 1.40707 0.688009 -0.883564
                CHANNELS 6 Xposition Yposition Zposition Zrotation Xrotation Yrotation
                JOINT Bip01_L_Toe01
                {
                  OFFSET 2.26828 0 0
                  CHANNELS 6 Xposition Yposition Zposition Zrotation Xrotation Yrotation
                  JOINT Bip01_L_Toe02
                  {
                    OFFSET 2.0977 0 0
                    CHANNELS 6 Xposition Yposition Zposition Zrotation Xrotation Yrotation
                    JOINT Bip01_L_Toe0Nub
                    {
                      OFFSET 1.53752 0 0
                      CHANNELS 6 Xposition Yposition Zposition Zrotation Xrotation Yrotation
                      End Site
                      {
                        OFFSET 0 0 0
                      }
                    }
                  }
                }
              }
            }
          }
        }
      }
      JOINT Bip01_Spine1
      {
        OFFSET 4.90674 -0.00437896 0
        CHANNELS 6 Xposition Yposition Zposition Zrotation Xrotation Yrotation
        JOINT Bip01_Neck
        {
          OFFSET 5.56447 -1.28357 0
          CHANNELS 6 Xposition Yposition Zposition Zrotation Xrotation Yrotation
          JOINT Bip01_Neck1
          {
            OFFSET 2.79308 -0.00219964 0
            CHANNELS 6 Xposition Yposition Zposition Zrotation Xrotation Yrotation
            JOINT Bip01_Head
            {
              OFFSET 2.79272 0 0
              CHANNELS 6 Xposition Yposition Zposition Zrotation Xrotation Yrotation
              JOINT BN_Mouth_01
              {
                OFFSET 4.19089 0.0665938 0
                CHANNELS 6 Xposition Yposition Zposition Zrotation Xrotation Yrotation
                End Site
                {
                  OFFSET 0 0 0
                }
              }
              JOINT Bip01_HeadNub
              {
                OFFSET 6.95118 0 0
                CHANNELS 6 Xposition Yposition Zposition Zrotation Xrotation Yrotation
                End Site
                {
                  OFFSET 0 0 0
                }
              }
            }
          }
        }
      }
    }
  }
}
MOTION
Frames:	3
Frame Time:	0.0333333
0 91.44 0 -104.95 -90 -4.90042 0 0 0 -89.9988 6.18131 -89.9989 -5.52396 -0.33226 0 -14.8332 -0.0014038 -179.777 6.48885 2.28882e-005 0.000982981 0.639979 0.0011907 0.213324 7.08759 7.6294e-006 0.00107189 8.50592 -0.00238987 0.203573 4.02178 0.398903 0 3.5012 1.553e-017 5.11133e-016 4.84414 -3.22853 -3.65581 -64.9356 5.71755 125.135 8.51613 7.10544e-015 1.42109e-014 20.3511 2.88938 31.5552 10.1924 5.72206e-006 -1.90735e-006 -11.8758 1.68547 2.52796 14.5949 -1.43856 0.585083 -54.4696 0.804455 -41.676 14.4623 -3.8147e-006 0 -3.57393 2.22709 -47.8978 4.84413 -3.22853 3.65557 110.773 0.545357 -54.1543 8.51612 -3.8147e-006 -7.62939e-006 -20.4883 -1.58921 32.5159 10.1924 1.90735e-006 0 12.3702 2.63129 5.65326 14.4623 0 -5.72204e-006 -1.64898 -3.44973 -46.1563 14.5949 1.43854 0.585066 46.2394 -3.45517 -39.6882 -4.03869 -0.152496 -3.45377 -90.8949 3.23426 -177.046 3.92615 0 3.57628e-007 -80.8737 -2.68521e-006 -1.71115e-005 6.1232 0 -1.19209e-007 69.2614 2.74487e-005 -4.03889e-007 9.94773 -7.10547e-015 -0.00062275 -60.5296 8.74117 14.5175 0.881234 -0.110978 0.0157604 151.285 -4.58588 179.66 2.32137 1.4211e-014 -0.000543594 4.42849 0.0117015 0.0310446 1.63293 0 0.000551224 -38.915 0.0025279 -0.017644 1.72129 -1.5259e-005 1.77636e-015 -1.80354e-006 1.04721e-005 -4.06746e-008 0.994645 0.967225 -1.09442 79.2091 -7.41025 26.5539 2.202 0 0.000597 -26.5674 -0.0123583 -0.0388533 1.84925 3.81476e-006 -0.000793457 -40.8085 -0.000760272 0.0221055 1.70976 -1.42111e-014 -1.90735e-006 3.28772e-007 1.03768e-005 -6.08489e-007 1.37481 1.34023 -0.071435 71.7393 0.855931 -2.53515 2.26124 -3.55276e-015 0.000703812 -31.0049 -0.01726 -0.0555918 2.22213 -7.62952e-006 -0.00142956 -42.5185 -0.0114109 0.029332 1.61866 -1.42111e-014 0 -6.71216e-007 1.00631e-005 5.56143e-007 1.40704 0.687971 0.883607 86.8652 1.94912 -31.8431 2.26828 7.15266e-007 1.14441e-005 -35.7772 8.7778e-006 6.99443e-006 2.09769 -1.90738e-006 7.62939e-006 -62.796 -9.48152e-006 -1.53206e-005 1.53752 3.81479e-006 0 -4.05269e-007 5.85076e-007 1.87078e-007 -4.03869 -0.152489 3.45377 -83.0179 -3.00716 173.937 3.92616 -1.90735e-006 9.53674e-007 -84.1017 -1.00268e-005 6.86681e-007 6.1232 1.42109e-014 -1.77636e-015 54.6135 -8.14288e-006 -1.81171e-005 9.94775 7.62943e-006 0 -18.7272 -14.5909 -8.91346 0.881238 -0.110993 -0.0156994 138.835 4.37471 -178.685 2.32137 7.62946e-006 0.00104141 -30.3993 -0.0175305 -0.0555078 1.63293 7.62948e-006 -0.000999451 -31.8005 -0.00189929 0.0321835 1.7213 0 -9.53674e-007 -179.962 -0.00551665 -0.00891648 0.994599 0.967085 1.0946 63.3009 14.7522 -23.4539 2.202 1.90737e-006 -3.55271e-015 -2.64758 -0.01366 -0.0142963 1.84926 0 -1.90735e-006 -85.0139 -8.89221e-006 1.89399e-006 1.70976 1.42111e-014 -3.55271e-015 179.961 0.00411781 -0.00369797 1.37486 1.34018 0.0716915 64.0617 -1.1795 2.42113 2.26123 -9.53684e-007 0 -13.122 -0.0115048 -0.0224491 2.22214 -1.90737e-006 -0.000555992 -68.2824 -0.00588592 0.00868233 1.61867 1.42111e-014 0 -179.961 0.00881335 -0.00191829 1.40715 0.688038 -0.883416 75.2268 -9.01708 30.7237 2.26828 -2.38421e-006 0 -14.7462 -3.06619e-006 1.03461e-005 2.0977 3.81474e-006 0 -70.2803 4.45017e-006 9.70423e-006 1.53753 3.81478e-006 0 179.962 -0.00897383 0.00391724 4.90619 -0.00435639 -1.16415e-010 -3.13385 1.0003e-005 5.47727e-007 5.5643 -1.28358 1.16415e-010 -0.800867 -0.00554795 -0.206387 2.79235 -0.0022049 6.93889e-018 -9.93408 -0.0983168 -0.201602 2.79272 2.28882e-005 -2.98023e-008 23.1183 0.893742 1.26295 4.19088 0.0666047 1.19209e-007 -163.461 -0.0427552 -179.994 6.95116 7.6294e-006 1.19209e-007 -3.26231e-006 -2.68359e-015 5.33504e-008 
0.128526 91.8882 0.021079 -104.95 -90 -4.90042 0 0 0 -89.9988 6.18131 -89.9989 -5.52396 -0.33226 0 -14.5684 -0.0429678 -179.613 6.48885 2.28882e-005 0.000982981 1.35573 0.00818418 0.396194 7.08759 7.6294e-006 0.00107189 14.9771 0.066727 0.375084 4.02178 0.398903 -3.46945e-018 2.56421 2.20625e-012 1.37962e-013 4.84414 -3.22853 -3.65581 -64.8428 4.48445 119.615 8.51613 7.10544e-015 -2.84217e-014 19.7075 3.20175 30.2528 10.1924 5.72206e-006 -1.90735e-006 -10.3186 9.34427 22.6755 14.5949 -1.43856 0.585083 -54.6833 0.933843 -20.4884 14.4623 -3.8147e-006 -3.90798e-014 -5.66269 2.95406 -25.1857 4.84413 -3.22853 3.65557 111.403 0.639828 -60.1022 8.51613 -3.8147e-006 -7.62939e-006 -19.5292 -2.09878 31.6803 10.1924 1.90735e-006 7.10542e-015 12.1199 -1.59677 26.21 14.4623 0 -5.72204e-006 -1.47027 -4.48781 -23.4907 14.5949 1.43854 0.585066 46.4382 -4.17066 -16.5866 -4.03575 -0.21824 -3.45377 -89.3537 3.21068 -176.971 3.92615 1.77636e-015 3.57628e-007 -82.6841 -2.15561e-006 -1.71847e-005 6.1232 2.84218e-014 -1.19209e-007 71.5317 2.74114e-005 -1.50551e-006 9.94773 -6.39492e-014 -0.00062275 -59.2986 9.09448 14.2671 0.881234 -0.110978 0.0157604 151.855 -4.56979 179.728 2.32137 -3.69486e-013 -0.000543594 4.43052 0.0113476 0.0264628 1.63293 4.54753e-013 0.000551224 -38.6754 0.00691017 -0.0232213 1.72129 -1.5259e-005 -8.88178e-015 -1.80354e-006 1.04721e-005 -4.06746e-008 0.994645 0.967225 -1.09442 79.4986 -7.62247 26.3741 2.202 -6.86572e-013 0.000597 -24.6475 -0.0219135 -0.0204146 1.84925 3.81476e-006 -0.000793457 -40.7089 0.0052227 0.0151977 1.70976 -2.84223e-014 -1.90735e-006 3.28772e-007 1.03768e-005 -6.08489e-007 1.37481 1.34023 -0.071435 72.1916 0.819481 -2.54709 2.26124 -1.17241e-013 0.000703812 -29.6791 -0.0377325 -0.0215041 2.22213 -7.62952e-006 -0.00142956 -42.3489 0.00438558 0.0121306 1.61866 1.42111e-014 -1.77636e-015 -6.71216e-007 1.00631e-005 5.56143e-007 1.40704 0.687971 0.883607 87.1656 1.76301 -31.8497 2.26828 7.15266e-007 1.14441e-005 -34.5889 0.000282973 -0.000390418 2.09769 -1.90738e-006 7.62939e-006 -62.3505 -9.36206e-005 2.864e-005 1.53752 3.81479e-006 2.84217e-014 -4.05269e-007 5.85076e-007 1.87078e-007 -4.03575 -0.218243 3.45377 -79.3697 -2.34327 174.488 3.92616 -1.90735e-006 9.53674e-007 -79.8179 -9.96272e-006 1.41875e-006 6.1232 0 -1.77636e-015 51.2365 -7.05239e-006 -1.85876e-005 9.94775 7.62943e-006 -2.66453e-015 -18.1181 -13.2309 -8.01415 0.881239 -0.110993 -0.0156994 138.004 4.39442 -178.612 2.32137 7.62946e-006 0.00104141 -30.6864 -0.0199433 -0.0510604 1.63293 7.62948e-006 -0.000999451 -33.3501 -0.000760934 0.0290693 1.7213 0 -9.53674e-007 -179.962 -0.00551665 -0.00891648 0.994599 0.967085 1.0946 61.9015 15.3335 -23.0906 2.202 1.90737e-006 -1.77636e-014 -4.2072 -0.0172099 0.0389552 1.84926 1.06583e-014 -1.90735e-006 -83.3527 9.68035e-007 6.65457e-007 1.70976 -1.42111e-014 7.10542e-015 179.961 0.00411781 -0.00369797 1.37486 1.34018 0.0716915 62.7865 -1.23228 2.39471 2.26123 -9.53684e-007 -1.77636e-015 -14.7075 -0.0117879 -0.0192971 2.22214 -1.90737e-006 -0.000555992 -66.1078 -0.00557665 0.00891035 1.61867 0 -1.77636e-015 -179.961 0.00881335 -0.00191829 1.40715 0.688038 -0.883416 74.0904 -9.68015 30.5393 2.26828 -2.38421e-006 2.13163e-014 -16.5956 0.00362501 -0.0121647 2.0977 3.81474e-006 7.10542e-015 -69.1461 0.0018599 -0.000696931 1.53753 3.81478e-006 0 179.962 -0.00897383 0.00391724 4.90619 -0.00435639 -1.16415e-010 -2.91779 1.0005e-005 5.10002e-007 5.5643 -1.28358 1.16458e-010 -0.659008 -0.00724324 -0.103407 2.79235 -0.0022049 -1.16573e-015 -8.81081 -0.117922 -0.0985269 2.79272 2.28882e-005 -2.98023e-008 23.4911 0.88283 0.875815 4.19088 0.0666047 1.19199e-007 -161.787 -0.0211182 -179.997 6.95116 7.6294e-006 1.19209e-007 -3.26231e-006 -1.17681e-013 5.33504e-008 
0.30655 91.7494 -5.25989e-009 -104.95 -90 -4.90042 0 0 0 -89.9988 6.18131 -89.9989 -5.52396 -0.33226 0 -13.3246 -0.0620856 -179.496 6.48885 2.28882e-005 0.000982981 1.9444 0.0162452 0.513637 7.08759 7.6294e-006 0.00107189 19.0944 0.127217 0.466762 4.02178 0.398903 -2.1684e-019 1.21005 5.50443e-012 3.44493e-013 4.84414 -3.22853 -3.65581 -63.7476 2.29598 105.665 8.51613 7.10544e-015 -4.26326e-014 18.1774 4.00578 26.8703 10.1924 5.72205e-006 -1.90735e-006 -16.7921 12.2953 54.3156 14.5949 -1.43856 0.585083 -54.86 0.436737 14.547 14.4623 -3.8147e-006 -7.10542e-014 -9.32722 2.91323 13.5244 4.84413 -3.22853 3.65557 113.07 0.559671 -74.9881 8.51613 -3.8147e-006 -7.62939e-006 -17.2132 -3.40344 29.4422 10.1924 1.90735e-006 -1.42108e-014 16.0201 -4.16453 56.1935 14.4623 2.3448e-013 -5.72204e-006 -0.129694 -4.35826 15.8043 14.5949 1.43854 0.585065 47.6893 -3.43647 21.3081 -4.02942 -0.313505 -3.45377 -87.7449 3.1499 -176.905 3.92615 3.55272e-015 3.57628e-007 -84.7249 -1.55525e-006 -1.72493e-005 6.1232 2.84218e-014 -1.19209e-007 72.1688 2.73905e-005 -1.82352e-006 9.94773 -1.06582e-013 -0.00062275 -56.8806 9.32943 14.0516 0.881234 -0.110978 0.0157604 153.375 -4.62021 179.838 2.32137 -9.23715e-013 -0.000543594 4.43249 0.0110003 0.0219699 1.63293 9.09505e-013 0.000551224 -38.0668 -0.0234142 0.0151112 1.72129 -1.5259e-005 -8.88178e-015 -1.80354e-006 1.04721e-005 -4.06746e-008 0.994645 0.967225 -1.09442 80.2691 -8.18432 25.9147 2.202 -2.24979e-012 0.000597 -19.4677 -0.0268057 -0.00947373 1.84925 3.81476e-006 -0.000793457 -40.4505 0.0385725 -0.0238617 1.70976 -2.13167e-014 -1.90735e-006 3.28772e-007 1.03768e-005 -6.08489e-007 1.37481 1.34023 -0.071435 73.391 0.764441 -2.56414 2.26124 -3.48171e-013 0.000703812 -26.0646 -0.0390132 -0.0190826 2.22213 -7.62952e-006 -0.00142956 -41.8888 0.0390266 -0.0264197 1.61866 2.84222e-014 -3.55271e-015 -6.71216e-007 1.00631e-005 5.56143e-007 1.40704 0.687971 0.883607 87.9937 1.24686 -31.8748 2.26828 7.15266e-007 1.14441e-005 -31.2953 0.0279202 -0.0459065 2.09769 -1.90738e-006 7.62939e-006 -61.1642 -0.00852079 0.0046703 1.53752 3.81479e-006 4.9738e-014 -4.05269e-007 5.85076e-007 1.87078e-007 -4.02942 -0.313515 3.45377 -73.519 -1.22333 175.242 3.92616 -1.90735e-006 9.53674e-007 -72.5935 -9.71626e-006 2.6439e-006 6.1232 -1.42109e-014 0 47.1532 -5.69892e-006 -1.90622e-005 9.94775 7.62943e-006 -3.55271e-015 -18.4924 -11.1826 -6.72571 0.881239 -0.110993 -0.0156994 135.755 4.2794 -178.486 2.32137 7.62946e-006 0.00104141 -31.4915 -0.0325536 -0.0295764 1.63293 7.62948e-006 -0.000999451 -37.5234 0.00277025 0.0215867 1.7213 -1.42111e-014 -9.53674e-007 -179.962 -0.00551665 -0.00891648 0.9946 0.967084 1.0946 58.1095 16.8481 -22.0392 2.202 1.90737e-006 -3.55271e-014 -8.36912 -0.0141542 -0.00207192 1.84926 0 -1.90735e-006 -78.8668 -2.8351e-007 -1.39806e-008 1.70976 -1.42111e-014 2.13163e-014 179.961 0.00411781 -0.00369797 1.37486 1.34018 0.0716915 59.3383 -1.37906 2.31334 2.26123 -9.53683e-007 -3.55271e-015 -18.9959 -0.020463 0.00936348 2.22214 -1.90737e-006 -0.000555992 -60.2322 0.00291689 0.00511515 1.61867 0 -1.77636e-015 -179.961 0.00881335 -0.00191829 1.40715 0.688038 -0.883416 71.0052 -11.4505 29.9732 2.26828 -2.38421e-006 0 -21.5539 -4.48442e-006 9.98809e-006 2.0977 3.81474e-006 1.42108e-014 -66.0908 0.00174513 -0.000761555 1.53753 3.81478e-006 -1.42108e-014 179.962 -0.00897383 0.00391724 4.90619 -0.00435639 -1.16415e-010 -2.64934 1.00073e-005 4.6312e-007 5.5643 -1.28358 1.16523e-010 -0.461635 -0.00879937 0.0455485 2.79235 -0.0022049 1.42798e-014 -7.00564 -0.138146 0.0450347 2.79272 2.28882e-005 -2.98023e-008 23.3954 0.837212 0.369513 4.19088 0.0666047 1.19181e-007 -160.145 1.52588e-005 -180 6.95116 7.6294e-006 1.19209e-007 -3.26231e-006 -6.98728e-014 5.33504e-008 
